<?xml version="1.0" encoding="UTF-8"?>
<svg version="1.1" xmlns="http://www.w3.org/2000/svg" width="500" height="500">
<path d="M0 0 C165 0 330 0 500 0 C500 165 500 330 500 500 C335 500 170 500 0 500 C0 335 0 170 0 0 Z " fill="#FEFEFE" transform="translate(0,0)"/>
<path d="M0 0 C4.45810752 -0.11734237 8.91581128 -0.18763372 13.375 -0.25 C14.62667969 -0.28351563 15.87835938 -0.31703125 17.16796875 -0.3515625 C25.99242801 -0.44396521 33.00349212 0.13797044 40.13330078 5.64892578 C47.10763382 12.48961891 49.92043729 21.67540506 53.25 30.625 C53.89279132 32.30761286 54.53751014 33.98949056 55.18408203 35.6706543 C56.49734386 39.0938199 57.79987647 42.5207518 59.09277344 45.95166016 C61.71569243 52.90804674 64.40075124 59.84020317 67.08679199 66.7723999 C67.86460552 68.78559622 68.63667148 70.80091031 69.40722656 72.81689453 C69.86838867 74.01813965 70.32955078 75.21938477 70.8046875 76.45703125 C71.20671387 77.50866455 71.60874023 78.56029785 72.02294922 79.64379883 C72.78967609 81.91711672 72.78967609 81.91711672 74 83 C75.97958296 77.25391683 77.95497101 71.50641521 79.92651367 65.75756836 C80.59756689 63.80274705 81.26975756 61.84831582 81.94311523 59.89428711 C82.91169933 57.08289137 83.87616213 54.27011063 84.83984375 51.45703125 C85.14091537 50.58601273 85.441987 49.7149942 85.75218201 48.81758118 C88.93965801 39.86615707 88.93965801 39.86615707 86.7265625 30.81640625 C86.2315625 29.64142578 85.7365625 28.46644531 85.2265625 27.25585938 C84.69361082 26.02434863 84.15974843 24.79323162 83.625 23.5625 C82.58797564 21.15052658 81.5619395 18.73447689 80.5390625 16.31640625 C80.07709473 15.24849854 79.61512695 14.18059082 79.13916016 13.08032227 C78.0132129 10.03572808 77.42073298 7.21147468 77 4 C73.37 3.67 69.74 3.34 66 3 C66 2.01 66 1.02 66 0 C69.96509139 -0.09990539 73.92968163 -0.17194834 77.89575195 -0.21972656 C79.89756051 -0.24940781 81.89901919 -0.30027058 83.90039062 -0.3515625 C93.47218065 -0.44800371 100.43317427 0.34388679 107.50756836 7.11254883 C111.19602506 10.89946877 113.03247564 14.7200936 114.875 19.62109375 C115.54819912 21.31545055 116.22272731 23.00927977 116.8984375 24.70263672 C117.24100586 25.57523132 117.58357422 26.44782593 117.93652344 27.34686279 C119.33855666 30.84462347 120.84835599 34.29051469 122.36180115 37.74119568 C139.48847385 76.96105345 139.48847385 76.96105345 136 99 C137.32 99 138.64 99 140 99 C139.39933852 103.11653337 138.48626955 106.89768038 137.15234375 110.8359375 C136.79462891 111.89941406 136.43691406 112.96289062 136.06835938 114.05859375 C135.69517578 115.15300781 135.32199219 116.24742187 134.9375 117.375 C134.37192383 119.05142578 134.37192383 119.05142578 133.79492188 120.76171875 C132.86734746 123.50921766 131.93558963 126.25522228 131 129 C129.02 129 127.04 129 125 129 C123.88271853 126.1560108 122.76544316 123.31201922 121.64819336 120.46801758 C120.66082625 117.95479449 119.67337306 115.44160541 118.68579102 112.9284668 C116.17873881 106.54830681 113.67313476 100.16759017 111.171875 93.78515625 C105.17824335 78.49766948 99.11958723 63.23750418 93 48 C89.90499939 55.4702825 87.20897747 63.03758453 84.62890625 70.69921875 C84.22469955 71.89247269 83.82049286 73.08572662 83.40403748 74.31513977 C82.33707644 77.46669359 81.27251396 80.61903641 80.20910645 83.77178955 C79.14093119 86.93648811 78.06925967 90.1000002 76.99804688 93.26367188 C72.97017368 105.16627002 68.95297364 117.07228741 65 129 C63.02 129 61.04 129 59 129 C58.73896484 128.34217529 58.47792969 127.68435059 58.20898438 127.0065918 C51.2165401 109.37709579 51.2165401 109.37709579 43.86523438 91.89526367 C41.56980712 86.53905467 39.51936054 81.09946437 37.48731995 75.63941956 C32.45907674 62.1518048 27.1553793 48.76729666 21.88856506 35.37150574 C19.94587586 30.42712663 18.02842104 25.47432471 16.1328125 20.51171875 C15.36015815 18.52834057 14.58680678 16.54523366 13.8125 14.5625 C13.48725342 13.68899902 13.16200684 12.81549805 12.8269043 11.91552734 C11.11229289 7.41668986 11.11229289 7.41668986 7.4375 4.50390625 C6.2309375 4.25447266 6.2309375 4.25447266 5 4 C4.071875 3.79375 3.14375 3.5875 2.1875 3.375 C1.465625 3.25125 0.74375 3.1275 0 3 C0 2.01 0 1.02 0 0 Z " fill="#23A165" transform="translate(97,155)"/>
<path d="M0 0 C35.31 0 70.62 0 107 0 C107 10.89 107 21.78 107 33 C101 33 101 33 99.0234375 31.63671875 C91.69962093 22.97656598 90.12870655 15.28706548 89 4 C82.07 4 75.14 4 68 4 C68 42.94 68 81.88 68 122 C70.64 122.33 73.28 122.66 76 123 C77.485 123.495 77.485 123.495 79 124 C79 124.99 79 125.98 79 127 C62.17 127 45.34 127 28 127 C28 126.01 28 125.02 28 124 C31.61973402 122.68373308 34.09567131 122 38 122 C38 83.39 38 44.78 38 5 C31.4 5 24.8 5 18 5 C17.67 7.64 17.34 10.28 17 13 C14.98044258 20.7053883 11.66907237 27.33092763 6 33 C4.02 33 2.04 33 0 33 C0 22.11 0 11.22 0 0 Z " fill="#26A267" transform="translate(240,214)"/>
<path d="M0 0 C1.8125 0.0625 1.8125 0.0625 4 1 C6.25255076 3.96049529 7.82267893 6.4680368 9 10 C9.38671875 9.4225 9.7734375 8.845 10.171875 8.25 C10.69265625 7.5075 11.2134375 6.765 11.75 6 C12.26046875 5.2575 12.7709375 4.515 13.296875 3.75 C13.85890625 3.1725 14.4209375 2.595 15 2 C16.32 2 17.64 2 19 2 C19 4.75433567 18.98592952 6.47642911 18 9 C16.15234375 10.5546875 16.15234375 10.5546875 13.9375 12 C11.7475782 13.36890228 11.7475782 13.36890228 10 15 C9.32961907 18.75511206 9.32961907 18.75511206 10 22 C11.74271938 19.702779 13.39911152 17.40133271 15 15 C16.98 15.99 16.98 15.99 19 17 C18.6684133 21.31062707 17.52542679 23.77586045 15.125 27.25 C13.66179623 29.49009487 13.66179623 29.49009487 13 32 C14.03305695 35.76097296 15.85978311 38.76521505 18 42 C18.33 42.66 18.66 43.32 19 44 C16.13132769 42.61735163 13.43975968 41.07851447 10.75 39.375 C10.04359375 38.92898438 9.3371875 38.48296875 8.609375 38.0234375 C8.07828125 37.68570313 7.5471875 37.34796875 7 37 C6.97421875 37.71285156 6.9484375 38.42570312 6.921875 39.16015625 C6.45844494 46.98580478 5.36567578 51.88059318 -0.5625 57.375 C-5.91987884 60.94658589 -11.78087473 60.45364972 -18 60 C-22.71593437 58.37085904 -25.97257151 55.97890601 -29 52 C-30.01207377 48.92463772 -30.40840578 46.22057133 -30 43 C-27.50718598 39.67624797 -25.93195734 38.31065245 -22 37 C-15.88153861 36.37778359 -12.62949917 37.30841688 -7.46875 40.61328125 C-6.9840625 41.07089844 -6.499375 41.52851563 -6 42 C-6 42.99 -6 43.98 -6 45 C-6.763125 44.34 -7.52625 43.68 -8.3125 43 C-12.77415937 39.97930717 -17.82259714 40.50420475 -23 41 C-24.485 41.495 -24.485 41.495 -26 42 C-27.27176136 47.60161686 -27.27176136 47.60161686 -25.5 52.8125 C-21.51954466 56.29539843 -17.8111543 57.80241953 -12.5625 58.375 C-6.89289314 57.77819928 -2.73432059 56.60424654 1.5 52.6875 C3.84789189 46.91559911 3.30330907 41.150434 3 35 C-5.87114439 31.12827173 -14.46834886 29.90891529 -24 29 C-24.29261719 29.76828125 -24.58523437 30.5365625 -24.88671875 31.328125 C-26.19215969 34.46118327 -27.63304195 36.56541458 -30 39 C-32.75 39.8125 -32.75 39.8125 -35 40 C-35.8125 38.3125 -35.8125 38.3125 -36 36 C-33.5625 33.25 -33.5625 33.25 -31 31 C-34.3 31.66 -37.6 32.32 -41 33 C-41 34.65 -41 36.3 -41 38 C-41.66 37.34 -42.32 36.68 -43 36 C-45.19097652 39.3340947 -46.43454163 42.04179141 -47 46 C-46.34 46.33 -45.68 46.66 -45 47 C-46.32 47 -47.64 47 -49 47 C-48.67 44.36 -48.34 41.72 -48 39 C-51.39675665 41.93356256 -52.75907718 45.01238675 -53.296875 49.44921875 C-53.24646366 52.10201873 -53.24646366 52.10201873 -51.28515625 53.80859375 C-50.55167969 54.34613281 -49.81820312 54.88367188 -49.0625 55.4375 C-45.11214366 58.61450615 -45.11214366 58.61450615 -44 62.4375 C-44 63.283125 -44 64.12875 -44 65 C-46.75 64.875 -46.75 64.875 -50 64 C-52.375 60.9375 -52.375 60.9375 -54 58 C-56.12440008 59.91973156 -56.12440008 59.91973156 -57.3125 62.5625 C-59 65 -59 65 -61.6875 65.8125 C-62.450625 65.874375 -63.21375 65.93625 -64 66 C-63.63074596 59.84576594 -62.17122773 57.27296499 -58 53 C-57.34 52.67 -56.68 52.34 -56 52 C-55.31270746 49.88153715 -55.31270746 49.88153715 -54.875 47.4375 C-54.70742187 46.61121094 -54.53984375 45.78492188 -54.3671875 44.93359375 C-54.18542969 43.97646484 -54.18542969 43.97646484 -54 43 C-55.6396875 44.0209375 -55.6396875 44.0209375 -57.3125 45.0625 C-59.17578125 46.22265625 -59.17578125 46.22265625 -61 47 C-61.99 46.67 -62.98 46.34 -64 46 C-62.92878906 45.36191406 -61.85757813 44.72382813 -60.75390625 44.06640625 C-59.35672466 43.23184812 -57.95959176 42.39720849 -56.5625 41.5625 C-55.50192383 40.93118164 -55.50192383 40.93118164 -54.41992188 40.28710938 C-51.02016651 38.39973701 -51.02016651 38.39973701 -48 36 C-50.97 35.34 -53.94 34.68 -57 34 C-56.67 32.35 -56.34 30.7 -56 29 C-54.37509046 28.97301811 -52.75005367 28.95361243 -51.125 28.9375 C-49.76761719 28.92009766 -49.76761719 28.92009766 -48.3828125 28.90234375 C-46 29 -46 29 -44 30 C-39.53507661 30.30442659 -36.1693589 29.5883272 -32 28 C-33.98 27.01 -35.96 26.02 -38 25 C-38 23.35 -38 21.7 -38 20 C-32.59305933 20.43255525 -29.24633878 21.58221513 -25 25 C-25 25.66 -25 26.32 -25 27 C-23.845 26.9175 -22.69 26.835 -21.5 26.75 C-14.02024656 26.71409718 -4.70378461 28.6481077 2 32 C-2.17577909 24.48359764 -6.57522827 20.21739909 -14.765625 17.390625 C-18.20771025 16.78886184 -21.64165202 16.77453062 -25.125 16.75 C-25.83398438 16.729375 -26.54296875 16.70875 -27.2734375 16.6875 C-36.84800246 16.61861824 -44.72573464 20.07330365 -52.9375 24.6875 C-59.63877744 28.33631019 -66.39529232 31.6222846 -73.4375 34.5625 C-74.23599365 34.89660889 -75.0344873 35.23071777 -75.85717773 35.57495117 C-82.54328027 38.31846677 -88.02903204 39.22905276 -95.25 39.3125 C-96.07113281 39.34150391 -96.89226562 39.37050781 -97.73828125 39.40039062 C-104.66428115 39.47173611 -109.86154843 37.82281982 -115.05859375 33.1484375 C-115.51363281 32.56320312 -115.96867188 31.97796875 -116.4375 31.375 C-116.91058594 30.78460938 -117.38367188 30.19421875 -117.87109375 29.5859375 C-121.0002198 25.19000264 -120.54984187 20.20516972 -120 15 C-118.71456923 11.84429791 -117.12048487 9.56024244 -114 8 C-114.28875 8.53625 -114.5775 9.0725 -114.875 9.625 C-117.14066107 14.40806226 -118.65232658 18.6726663 -118 24 C-115.79282191 29.46996309 -113.12004606 32.5046599 -107.7890625 35.109375 C-89.52163485 40.94267122 -70.74660726 29.56094627 -55.046875 21.5703125 C-53.73299805 20.90177246 -53.73299805 20.90177246 -52.39257812 20.21972656 C-50.41112173 19.20958818 -48.43183592 18.19519333 -46.453125 17.1796875 C-36.05076624 12.46359221 -23.19946115 11.94834009 -12.23046875 15.07421875 C-4.32717294 18.70277595 0.50632014 24.11279317 5.125 31.3125 C7.16148144 34.23145674 8.93737991 35.28794516 12 37 C11.47599609 35.515 11.47599609 35.515 10.94140625 34 C10.4798044 32.66734617 10.02030343 31.33396346 9.5625 30 C9.32587646 29.31099609 9.08925293 28.62199219 8.84545898 27.91210938 C7.67688776 24.40515386 6.73956541 21.21837369 6.5625 17.5 C5.87462848 13.21991052 4.28507818 11.7186309 1.37109375 8.671875 C-0.60824871 6.25831781 -0.92696192 4.06759918 -1 1 C-0.67 0.67 -0.34 0.34 0 0 Z " fill="#2B2B2B" transform="translate(252,280)"/>
<path d="M0 0 C2.41586432 2.41586432 4.0721815 4.49906752 5.5625 7.5625 C5.5625 8.2225 5.5625 8.8825 5.5625 9.5625 C4.36753906 9.28535156 3.17257813 9.00820313 1.94140625 8.72265625 C0.33599691 8.35651026 -1.26947525 7.9906396 -2.875 7.625 C-3.65810547 7.44259766 -4.44121094 7.26019531 -5.24804688 7.07226562 C-10.63808734 5.85229762 -15.93516112 5.08574544 -21.4375 4.5625 C-21.4375 3.9025 -21.4375 3.2425 -21.4375 2.5625 C-24.29160334 1.05689503 -27.11874642 -0.06966796 -30.1875 -1.0625 C-30.98671875 -1.32289063 -31.7859375 -1.58328125 -32.609375 -1.8515625 C-33.21265625 -2.04492188 -33.8159375 -2.23828125 -34.4375 -2.4375 C-34.4375 -0.7875 -34.4375 0.8625 -34.4375 2.5625 C-32.1275 3.2225 -29.8175 3.8825 -27.4375 4.5625 C-28.4375 6.5625 -28.4375 6.5625 -31.125 7.6875 C-35.07374604 8.73056499 -38.6815021 9.44049895 -42.4375 7.5625 C-44.14452735 7.49253986 -45.85418003 7.47809846 -47.5625 7.5 C-48.92761719 7.51353516 -48.92761719 7.51353516 -50.3203125 7.52734375 C-51.36832031 7.54474609 -51.36832031 7.54474609 -52.4375 7.5625 C-52.7675 8.8825 -53.0975 10.2025 -53.4375 11.5625 C-50.1375 11.8925 -46.8375 12.2225 -43.4375 12.5625 C-46.59484403 16.26421369 -49.37131799 18.04655769 -53.8125 20.0625 C-60.02268339 23.24720943 -62.26372236 27.66462907 -65.09765625 33.734375 C-66.4375 36.5625 -66.4375 36.5625 -68.4375 38.5625 C-69.7575 38.5625 -71.0775 38.5625 -72.4375 38.5625 C-71.6875 31.8125 -71.6875 31.8125 -69.4375 29.5625 C-77.17006432 29.1544778 -77.17006432 29.1544778 -83.7578125 32.59765625 C-85.46807529 34.85534624 -86.99150611 37.12911223 -88.4375 39.5625 C-89.4375 40.5625 -89.4375 40.5625 -92 40.625 C-92.804375 40.604375 -93.60875 40.58375 -94.4375 40.5625 C-94.29719405 37.54592209 -94.14398535 35.32408727 -92.03515625 33.05078125 C-90.54845765 31.82993934 -88.99615102 30.69003478 -87.4375 29.5625 C-88.00339844 29.32015625 -88.56929687 29.0778125 -89.15234375 28.828125 C-89.88582031 28.49296875 -90.61929688 28.1578125 -91.375 27.8125 C-92.10589844 27.48765625 -92.83679688 27.1628125 -93.58984375 26.828125 C-95.4375 25.5625 -95.4375 25.5625 -96.19140625 23.421875 C-96.27261719 22.80828125 -96.35382813 22.1946875 -96.4375 21.5625 C-93.03187148 20.78407062 -89.92984244 20.46271879 -86.4375 20.5625 C-86.42460937 19.95792969 -86.41171875 19.35335938 -86.3984375 18.73046875 C-85.4375 16.5625 -85.4375 16.5625 -82.2890625 15.17578125 C-80.88402266 14.72998235 -79.4747649 14.2973523 -78.0625 13.875 C-71.39518254 11.70614788 -65.06723781 9.16760632 -58.75 6.125 C-57.95722656 5.7431958 -57.16445312 5.3613916 -56.34765625 4.96801758 C-52.64768996 3.16802367 -48.96789133 1.33078435 -45.30078125 -0.53515625 C-44.66551514 -0.85750244 -44.03024902 -1.17984863 -43.37573242 -1.51196289 C-41.68617369 -2.37437263 -40.00297233 -3.24920597 -38.3203125 -4.125 C-26.51822017 -9.49831033 -10.21894991 -7.83783537 0 0 Z " fill="#F6F6F6" transform="translate(248.4375,302.4375)"/>
<path d="M0 0 C4.01810594 2.64439451 6.87785178 5.63780644 9 10 C9 10.66 9 11.32 9 12 C7.80503906 11.72285156 6.61007813 11.44570313 5.37890625 11.16015625 C3.77349691 10.79401026 2.16802475 10.4281396 0.5625 10.0625 C-0.22060547 9.88009766 -1.00371094 9.69769531 -1.81054688 9.50976562 C-7.20058734 8.28979762 -12.49766112 7.52324544 -18 7 C-18 6.34 -18 5.68 -18 5 C-20.85410334 3.49439503 -23.68124642 2.36783204 -26.75 1.375 C-27.54921875 1.11460937 -28.3484375 0.85421875 -29.171875 0.5859375 C-29.77515625 0.39257812 -30.3784375 0.19921875 -31 0 C-31 1.65 -31 3.3 -31 5 C-28.69 5.66 -26.38 6.32 -24 7 C-25 9 -25 9 -27.6875 10.125 C-31.63624604 11.16806499 -35.2440021 11.87799895 -39 10 C-40.70363822 9.77377919 -42.41328701 9.59111527 -44.125 9.4375 C-45.03507813 9.35371094 -45.94515625 9.26992188 -46.8828125 9.18359375 C-47.93082031 9.09271484 -47.93082031 9.09271484 -49 9 C-49.33 8.01 -49.66 7.02 -50 6 C-47.48287811 4.70064536 -44.96170913 3.41045628 -42.4375 2.125 C-41.73302734 1.76019531 -41.02855469 1.39539063 -40.30273438 1.01953125 C-28.05394302 -5.18953349 -12.31816018 -7.35270026 0 0 Z " fill="#F5F5F5" transform="translate(245,300)"/>
<path d="M0 0 C4.4571874 0.26218749 6.51522698 0.57711289 9.9375 3.5625 C10.9584375 4.7690625 10.9584375 4.7690625 12 6 C10.68 6.33 9.36 6.66 8 7 C8 7.66 8 8.32 8 9 C9.32 9.33 10.64 9.66 12 10 C10.64978174 14.41889613 8.73884332 16.34345343 5 19 C4.01 18.01 3.02 17.02 2 16 C3.65 14.35 5.3 12.7 7 11 C3.7 11.66 0.4 12.32 -3 13 C-3 14.65 -3 16.3 -3 18 C-3.66 17.34 -4.32 16.68 -5 16 C-7.19097652 19.3340947 -8.43454163 22.04179141 -9 26 C-8.34 26.33 -7.68 26.66 -7 27 C-8.32 27 -9.64 27 -11 27 C-10.67 24.36 -10.34 21.72 -10 19 C-13.39675665 21.93356256 -14.75907718 25.01238675 -15.296875 29.44921875 C-15.24646366 32.10201873 -15.24646366 32.10201873 -13.28515625 33.80859375 C-12.55167969 34.34613281 -11.81820312 34.88367188 -11.0625 35.4375 C-7.11214366 38.61450615 -7.11214366 38.61450615 -6 42.4375 C-6 43.283125 -6 44.12875 -6 45 C-8.75 44.875 -8.75 44.875 -12 44 C-14.375 40.9375 -14.375 40.9375 -16 38 C-18.12440008 39.91973156 -18.12440008 39.91973156 -19.3125 42.5625 C-21 45 -21 45 -23.6875 45.8125 C-24.450625 45.874375 -25.21375 45.93625 -26 46 C-25.63074596 39.84576594 -24.17122773 37.27296499 -20 33 C-19.01 32.505 -19.01 32.505 -18 32 C-17.31270746 29.88153715 -17.31270746 29.88153715 -16.875 27.4375 C-16.70742187 26.61121094 -16.53984375 25.78492188 -16.3671875 24.93359375 C-16.24601563 24.29550781 -16.12484375 23.65742188 -16 23 C-17.6396875 24.0209375 -17.6396875 24.0209375 -19.3125 25.0625 C-21.17578125 26.22265625 -21.17578125 26.22265625 -23 27 C-23.99 26.67 -24.98 26.34 -26 26 C-24.92878906 25.36191406 -23.85757813 24.72382813 -22.75390625 24.06640625 C-21.35672466 23.23184812 -19.95959176 22.39720849 -18.5625 21.5625 C-17.50192383 20.93118164 -17.50192383 20.93118164 -16.41992188 20.28710938 C-13.02016651 18.39973701 -13.02016651 18.39973701 -10 16 C-14.455 15.01 -14.455 15.01 -19 14 C-18.67 12.35 -18.34 10.7 -18 9 C-16.37509046 8.97301811 -14.75005367 8.95361243 -13.125 8.9375 C-12.22007812 8.92589844 -11.31515625 8.91429687 -10.3828125 8.90234375 C-8 9 -8 9 -6 10 C-1.53507661 10.30442659 1.8306411 9.5883272 6 8 C4.02 7.01 2.04 6.02 0 5 C0 3.35 0 1.7 0 0 Z " fill="#313131" transform="translate(214,300)"/>
<path d="M0 0 C10.89 0 21.78 0 33 0 C32.67 1.32 32.34 2.64 32 4 C29.34765625 5.265625 29.34765625 5.265625 26.0625 6.25 C24.98097656 6.58515625 23.89945312 6.9203125 22.78515625 7.265625 C20 8 20 8 18 8 C17.78472656 9.13566406 17.56945312 10.27132812 17.34765625 11.44140625 C15.81493319 18.33528399 13.46269085 24.98621517 11.2043457 31.66821289 C10.43159608 33.95497117 9.66545717 36.24386419 8.90039062 38.53320312 C8.4118355 39.9897099 7.92291654 41.4460947 7.43359375 42.90234375 C7.08982948 43.92726173 7.08982948 43.92726173 6.73912048 44.97288513 C5.11733322 49.76533356 5.11733322 49.76533356 4 52 C2.35 52 0.7 52 -1 52 C-0.39975772 46.6070879 0.89147104 41.84029211 2.6875 36.73046875 C2.95006592 35.96825516 3.21263184 35.20604156 3.4831543 34.42073059 C4.31623203 32.00757488 5.15813923 29.59760369 6 27.1875 C6.56565111 25.55031908 7.1307606 23.91295092 7.6953125 22.27539062 C8.23389786 20.71858485 8.772944 19.16193839 9.3125 17.60546875 C9.56668701 16.87216843 9.82087402 16.1388681 10.08276367 15.38334656 C11.88098751 10.23802498 11.88098751 10.23802498 13 8 C12.39671875 7.80664062 11.7934375 7.61328125 11.171875 7.4140625 C10.37265625 7.15367187 9.5734375 6.89328125 8.75 6.625 C7.96109375 6.36976563 7.1721875 6.11453125 6.359375 5.8515625 C4.13372042 5.04826333 2.09068328 4.10288338 0 3 C0 2.01 0 1.02 0 0 Z " fill="#32A06F" transform="translate(250,155)"/>
<path d="M0 0 C6.93 0 13.86 0 21 0 C22.485 7.92 22.485 7.92 24 16 C23.01 15.67 22.02 15.34 21 15 C19.8805387 12.1085914 19.89231803 9.32237388 19.9375 6.25 C19.94652344 5.45078125 19.95554687 4.6515625 19.96484375 3.828125 C19.97644531 3.22484375 19.98804688 2.6215625 20 2 C17.9163691 2.14151828 15.83310062 2.28837936 13.75 2.4375 C12.00976562 2.55931641 12.00976562 2.55931641 10.234375 2.68359375 C6.84154434 2.9355392 6.84154434 2.9355392 3 4 C2.67 41.29 2.34 78.58 2 117 C5.96 117.495 5.96 117.495 10 118 C10 118.66 10 119.32 10 120 C6.7 119.34 3.4 118.68 0 118 C0 79.06 0 40.12 0 0 Z " fill="#CEEDDD" transform="translate(308,218)"/>
<path d="M0 0 C0.66 0 1.32 0 2 0 C3.78721686 8.47435345 1.57061959 14.78825102 -1.27734375 22.78515625 C-1.72877131 24.09453944 -2.17857944 25.40448195 -2.62684631 26.71495056 C-3.80270323 30.13841777 -5.00019816 33.55391204 -6.20257568 36.96813965 C-7.42897492 40.46308718 -8.63445985 43.96522886 -9.84179688 47.46679688 C-12.20761297 54.31835161 -14.59636667 61.16160789 -17 68 C-17.66 66.68 -18.32 65.36 -19 64 C-18.34 64 -17.68 64 -17 64 C-17 61.36 -17 58.72 -17 56 C-16.34 56 -15.68 56 -15 56 C-14.79654492 51.98813104 -14.79654492 51.98813104 -15 48 C-15.97850195 46.97895449 -16.97980427 45.9793879 -18 45 C-18.5788755 42.32538078 -18.77561035 39.73755367 -19 37 C-17.04783565 38.95216435 -16.15173355 40.53199953 -15 43 C-14.58113525 41.76846191 -14.16227051 40.53692383 -13.73071289 39.26806641 C-12.17973755 34.70914659 -10.62689749 30.15086379 -9.07348633 25.59277344 C-8.40077454 23.61801263 -7.72857203 21.64307827 -7.05688477 19.66796875 C-6.09264067 16.83287763 -5.12658088 13.99841094 -4.16015625 11.1640625 C-3.70854881 9.83430893 -3.70854881 9.83430893 -3.24781799 8.47769165 C-2.967603 7.65699188 -2.687388 6.83629211 -2.39868164 5.99072266 C-2.15219376 5.26680328 -1.90570587 4.54288391 -1.65174866 3.79702759 C-1 2 -1 2 0 0 Z " fill="#369E6E" transform="translate(186,195)"/>
<path d="M0 0 C0 3 0 3 -1.5 6.3125 C-3.64344604 11.58180484 -3.69119028 14.28705017 -1.5625 19.5625 C1.3290251 24.04934929 4.9494406 26.38721633 10 28 C28.1790833 30.84992755 44.30601286 21.54291732 59.94140625 13.5703125 C72.40499564 7.22496219 82.05186213 5.29554859 96 6 C96 6.33 96 6.66 96 7 C95.28457031 7.02578125 94.56914062 7.0515625 93.83203125 7.078125 C80.88586676 7.81503475 70.70138625 11.93902058 59.46435547 18.06396484 C53.61967898 21.22618346 47.69481162 24.00352341 41.5625 26.5625 C40.36439697 27.06378418 40.36439697 27.06378418 39.14208984 27.57519531 C32.45632977 30.31873699 26.97062857 31.22905668 19.75 31.3125 C18.92886719 31.34150391 18.10773438 31.37050781 17.26171875 31.40039062 C10.33571885 31.47173611 5.13845157 29.82281982 -0.05859375 25.1484375 C-0.51363281 24.56320312 -0.96867188 23.97796875 -1.4375 23.375 C-1.91058594 22.78460938 -2.38367188 22.19421875 -2.87109375 21.5859375 C-5.99791649 17.19323843 -5.55681459 12.20182049 -5 7 C-3.80791528 4.19318235 -2.16577152 2.16577152 0 0 Z " fill="#191919" transform="translate(137,288)"/>
<path d="M0 0 C24.75 0 49.5 0 75 0 C75 10.89 75 21.78 75 33 C73.02 33 71.04 33 69 33 C68.67 32.34 68.34 31.68 68 31 C68.99 30.34 69.98 29.68 71 29 C70.505 27.515 70.505 27.515 70 26 C69.92948886 23.26134713 69.90642235 20.54972412 69.9375 17.8125 C69.94201172 17.06291016 69.94652344 16.31332031 69.95117188 15.54101562 C69.96293646 13.69397617 69.98087135 11.84697787 70 10 C70.66 10 71.32 10 72 10 C72 9.34 72 8.68 72 8 C69.36 8 66.72 8 64 8 C63.505 6.515 63.505 6.515 63 5 C65.97 5.33 68.94 5.66 72 6 C72 4.35 72 2.7 72 1 C48.24 1 24.48 1 0 1 C0 0.67 0 0.34 0 0 Z " fill="#40A374" transform="translate(272,214)"/>
<path d="M0 0 C10.89 0 21.78 0 33 0 C32.67 1.32 32.34 2.64 32 4 C29.453125 5.23046875 29.453125 5.23046875 26.25 6.1875 C24.67992187 6.67283203 24.67992187 6.67283203 23.078125 7.16796875 C20.3938707 7.89353495 17.733809 8.49880168 15 9 C14.34 8.01 13.68 7.02 13 6 C12.43796875 6.20496094 11.8759375 6.40992188 11.296875 6.62109375 C8.33198876 7.11019913 6.92890711 6.36255786 4.25 5.0625 C3.45078125 4.68222656 2.6515625 4.30195313 1.828125 3.91015625 C1.22484375 3.60980469 0.6215625 3.30945313 0 3 C0 2.01 0 1.02 0 0 Z " fill="#2D9E6A" transform="translate(250,155)"/>
<path d="M0 0 C1.8125 0.0625 1.8125 0.0625 4 1 C6.25255076 3.96049529 7.82267893 6.4680368 9 10 C9.38671875 9.4225 9.7734375 8.845 10.171875 8.25 C10.69265625 7.5075 11.2134375 6.765 11.75 6 C12.26046875 5.2575 12.7709375 4.515 13.296875 3.75 C14.13992188 2.88375 14.13992188 2.88375 15 2 C16.32 2 17.64 2 19 2 C19 4.75433567 18.98592952 6.47642911 18 9 C16.15234375 10.5546875 16.15234375 10.5546875 13.9375 12 C11.75998891 13.39985421 11.75998891 13.39985421 10 15 C9.24988633 18.45728358 9.24988633 18.45728358 10 22 C10.165 23.299375 10.33 24.59875 10.5 25.9375 C10.665 26.948125 10.83 27.95875 11 29 C10.34 29 9.68 29 9 29 C7.82503328 25.24010651 6.95746092 21.93407382 6.75 18 C6.31900798 13.70665639 4.27344351 11.70646611 1.37109375 8.671875 C-0.60824871 6.25831781 -0.92696192 4.06759918 -1 1 C-0.67 0.67 -0.34 0.34 0 0 Z " fill="#2E2E2E" transform="translate(252,280)"/>
<path d="M0 0 C5.32300673 0.25347651 9.18891485 2.38059664 13 6 C13 6.66 13 7.32 13 8 C16.3 8 19.6 8 23 8 C23 8.33 23 8.66 23 9 C22.43152344 8.96777344 21.86304688 8.93554688 21.27734375 8.90234375 C17.25156319 8.96283127 14.86464765 9.17038411 11.87890625 12.03515625 C10.14989778 14.30335655 8.54736609 16.60526677 7 19 C6 20 6 20 3.4375 20.0625 C2.633125 20.041875 1.82875 20.02125 1 20 C1.14030595 16.98342209 1.29351465 14.76158727 3.40234375 12.48828125 C4.88904235 11.26743934 6.44134898 10.12753478 8 9 C7.43410156 8.75765625 6.86820313 8.5153125 6.28515625 8.265625 C5.55167969 7.93046875 4.81820312 7.5953125 4.0625 7.25 C2.96615234 6.76273437 2.96615234 6.76273437 1.84765625 6.265625 C0 5 0 5 -0.81640625 2.921875 C-0.87699219 2.28765625 -0.93757812 1.6534375 -1 1 C-0.67 0.67 -0.34 0.34 0 0 Z " fill="#383838" transform="translate(153,323)"/>
<path d="M0 0 C6.75479274 -0.7342166 11.18524285 1.72408048 17 5 C16.04661031 6.96074484 15.0871246 8.91852652 14.125 10.875 C13.32449219 12.51082031 13.32449219 12.51082031 12.5078125 14.1796875 C11 17 11 17 9 19 C7.68 19 6.36 19 5 19 C5.75 12.25 5.75 12.25 8 10 C7.01 9.34 6.02 8.68 5 8 C5.33 7.67 5.66 7.34 6 7 C5.195625 6.773125 4.39125 6.54625 3.5625 6.3125 C2.716875 5.879375 1.87125 5.44625 1 5 C0.1875 2.375 0.1875 2.375 0 0 Z " fill="#343434" transform="translate(171,322)"/>
<path d="M0 0 C6.6 0 13.2 0 20 0 C20 38.61 20 77.22 20 117 C18.68 116.67 17.36 116.34 16 116 C16.99 116 17.98 116 19 116 C18.89280127 101.57915986 18.77998248 87.15837312 18.66066074 72.73762798 C18.6054238 66.04198029 18.55188167 59.3463297 18.50268555 52.65063477 C18.45505347 46.19266191 18.40271097 39.73474304 18.34705925 33.27683449 C18.32663047 30.80921582 18.30791827 28.34158233 18.29092598 25.87393761 C18.26689367 22.42591354 18.2368373 18.97799193 18.20532227 15.5300293 C18.19668907 13.98931007 18.19668907 13.98931007 18.18788147 12.41746521 C18.17809265 11.47937012 18.16830383 10.54127502 18.15821838 9.57475281 C18.15176583 8.75896602 18.14531328 7.94317923 18.1386652 7.10267162 C18.07637938 4.8072798 18.07637938 4.8072798 17 2 C10.07 1.505 10.07 1.505 3 1 C2.67 2.65 2.34 4.3 2 6 C1.34 5.67 0.68 5.34 0 5 C0 3.35 0 1.7 0 0 Z " fill="#EFFEF7" transform="translate(258,219)"/>
<path d="M0 0 C0.33 0 0.66 0 1 0 C1.12375 1.13115234 1.12375 1.13115234 1.25 2.28515625 C2.16577332 5.60006488 3.28005373 6.41211144 6 8.4375 C9.88359428 11.59985534 9.88359428 11.59985534 11 15.4375 C11 16.283125 11 17.12875 11 18 C8.25 17.875 8.25 17.875 5 17 C2.625 13.9375 2.625 13.9375 1 11 C-1.12440008 12.91973156 -1.12440008 12.91973156 -2.3125 15.5625 C-4 18 -4 18 -6.6875 18.8125 C-7.450625 18.874375 -8.21375 18.93625 -9 19 C-8.63074596 12.84576594 -7.17122773 10.27296499 -3 6 C-2.34 5.67 -1.68 5.34 -1 5 C-0.34444881 2.47266765 -0.34444881 2.47266765 0 0 Z " fill="#222222" transform="translate(197,327)"/>
<path d="M0 0 C0.99 0 1.98 0 3 0 C2.39933852 4.11653337 1.48626955 7.89768038 0.15234375 11.8359375 C-0.20537109 12.89941406 -0.56308594 13.96289062 -0.93164062 15.05859375 C-1.30482422 16.15300781 -1.67800781 17.24742187 -2.0625 18.375 C-2.43955078 19.49261719 -2.81660156 20.61023438 -3.20507812 21.76171875 C-4.13265254 24.50921766 -5.06441037 27.25522228 -6 30 C-7.98 30 -9.96 30 -12 30 C-14.31 24.06 -16.62 18.12 -19 12 C-18.34 11.34 -17.68 10.68 -17 10 C-16.34 10.33 -15.68 10.66 -15 11 C-15.33 12.65 -15.66 14.3 -16 16 C-15.34 16 -14.68 16 -14 16 C-13.67 16.66 -13.34 17.32 -13 18 C-10.47266765 18.65555119 -10.47266765 18.65555119 -8 19 C-7.67 19.99 -7.34 20.98 -7 22 C-6.34 22.33 -5.68 22.66 -5 23 C-4.96261719 22.43152344 -4.92523438 21.86304688 -4.88671875 21.27734375 C-4.43162733 15.93225041 -3.19477931 11.93825346 -1 7 C-0.5945897 4.67810464 -0.23927006 2.34484656 0 0 Z " fill="#279F67" transform="translate(234,254)"/>
<path d="M0 0 C3.94876668 2.33559379 3.94876668 2.33559379 5.69921875 3.98828125 C5.69921875 4.97828125 5.69921875 5.96828125 5.69921875 6.98828125 C4.93609375 6.32828125 4.17296875 5.66828125 3.38671875 4.98828125 C-1.07494062 1.96758842 -6.12337839 2.492486 -11.30078125 2.98828125 C-12.29078125 3.31828125 -13.28078125 3.64828125 -14.30078125 3.98828125 C-15.57254261 9.58989811 -15.57254261 9.58989811 -13.80078125 14.80078125 C-9.82032591 18.28367968 -6.11193555 19.79070078 -0.86328125 20.36328125 C4.79851403 19.7673028 9.03339638 18.69794105 13.07421875 14.55078125 C15.36829637 9.52145724 16.02811842 4.44538654 16.69921875 -1.01171875 C17.02921875 -1.01171875 17.35921875 -1.01171875 17.69921875 -1.01171875 C18.17162365 6.24494546 18.15736873 11.08424479 13.69921875 16.98828125 C8.25110364 22.03775379 3.82813938 22.28101955 -3.35546875 22.203125 C-8.40370461 21.83488498 -11.1771891 19.83721754 -15.11328125 16.86328125 C-18.00551065 13.06206547 -18.90483419 9.75167014 -18.30078125 4.98828125 C-13.77186957 -1.05026766 -7.02167815 -3.08763097 0 0 Z " fill="#212121" transform="translate(240.30078125,318.01171875)"/>
<path d="M0 0 C4.4571874 0.26218749 6.51522698 0.57711289 9.9375 3.5625 C10.618125 4.366875 11.29875 5.17125 12 6 C10.68 6.33 9.36 6.66 8 7 C8 7.66 8 8.32 8 9 C9.32 9.33 10.64 9.66 12 10 C10.64978174 14.41889613 8.73884332 16.34345343 5 19 C4.01 18.01 3.02 17.02 2 16 C3.65 14.35 5.3 12.7 7 11 C6.37351563 11.16757812 5.74703125 11.33515625 5.1015625 11.5078125 C4.28429687 11.71148437 3.46703125 11.91515625 2.625 12.125 C1.81289062 12.33382813 1.00078125 12.54265625 0.1640625 12.7578125 C-0.55007812 12.83773438 -1.26421875 12.91765625 -2 13 C-2.66 12.34 -3.32 11.68 -4 11 C0.95 9.515 0.95 9.515 6 8 C4.02 7.01 2.04 6.02 0 5 C0 3.35 0 1.7 0 0 Z " fill="#303030" transform="translate(214,300)"/>
<path d="M0 0 C4.5416125 -0.05823729 9.0831284 -0.09367675 13.625 -0.125 C14.91019531 -0.14175781 16.19539063 -0.15851563 17.51953125 -0.17578125 C18.76347656 -0.18222656 20.00742188 -0.18867188 21.2890625 -0.1953125 C22.43068848 -0.20578613 23.57231445 -0.21625977 24.74853516 -0.22705078 C28.13566817 0.00947375 30.84005042 0.7904299 34 2 C33.34 2.66 32.68 3.32 32 4 C31.01 3.67 30.02 3.34 29 3 C26.60509014 2.93029948 24.20832309 2.91551997 21.8125 2.9375 C20.54019531 2.94652344 19.26789063 2.95554688 17.95703125 2.96484375 C16.98121094 2.97644531 16.00539063 2.98804688 15 3 C14.96258579 6.85834034 14.96332765 10.61370952 15.5 14.4375 C15.665 15.613125 15.83 16.78875 16 18 C14 15 14 15 13.02734375 12.58984375 C10.98746845 7.26225987 10.98746845 7.26225987 6.671875 3.90234375 C4.42655892 3.42574364 2.29105183 3.10981076 0 3 C0 2.01 0 1.02 0 0 Z " fill="#319D6A" transform="translate(97,155)"/>
<path d="M0 0 C0.33 0 0.66 0 1 0 C1 9.57 1 19.14 1 29 C2.98 29 4.96 29 7 29 C7.66 27.68 8.32 26.36 9 25 C9.66 25 10.32 25 11 25 C11.2165625 23.63875 11.2165625 23.63875 11.4375 22.25 C11.86409473 19.78523044 12.35074221 17.41152893 13 15 C13.66 15 14.32 15 15 15 C15 11.7 15 8.4 15 5 C15.66 4.67 16.32 4.34 17 4 C17.72474368 15.05234109 14.22972951 23.68024973 7 32 C6.505 32.495 6.505 32.495 6 33 C4.02 33 2.04 33 0 33 C0 22.11 0 11.22 0 0 Z " fill="#50A77F" transform="translate(240,214)"/>
<path d="M0 0 C7.59 0 15.18 0 23 0 C23.5231368 3.13882079 24.03574412 6.28084667 24.4375 9.4375 C24.92480691 13.05974186 24.92480691 13.05974186 26.125 16.6875 C26.98746478 19.95254525 26.94793201 20.93590991 26 24 C25.33838853 22.38135984 24.696722 20.75456686 24.0625 19.125 C23.70285156 18.22007812 23.34320313 17.31515625 22.97265625 16.3828125 C22 13 22 13 21 3 C14.07 3 7.14 3 0 3 C0 2.01 0 1.02 0 0 Z " fill="#299D69" transform="translate(308,215)"/>
<path d="M0 0 C2 3 2 3 1.71484375 5.33984375 C0.13570454 10.61686674 -0.9476968 14.16578113 -6 17 C-8.25 17.8125 -8.25 17.8125 -10 18 C-10.33 17.67 -10.66 17.34 -11 17 C-10.63378692 12.23922993 -9.86298657 8.85402039 -7 5 C-6.01 4.34 -5.02 3.68 -4 3 C-4.66 5.97 -5.32 8.94 -6 12 C-5.34 11.67 -4.68 11.34 -4 11 C-3.855625 9.906875 -3.71125 8.81375 -3.5625 7.6875 C-3.00822062 4.05389072 -2.42925049 2.64048966 0 0 Z " fill="#EBEBEB" transform="translate(209,315)"/>
<path d="M0 0 C-1.485 1.485 -1.485 1.485 -3 3 C9.21 2.67 21.42 2.34 34 2 C33.34 1.01 32.68 0.02 32 -1 C36.455 -0.01 36.455 -0.01 41 1 C41 1.99 41 2.98 41 4 C24.17 4 7.34 4 -10 4 C-10 3.01 -10 2.02 -10 1 C-3.71428571 -1.42857143 -3.71428571 -1.42857143 0 0 Z " fill="#43946E" transform="translate(278,337)"/>
<path d="M0 0 C0.33 0 0.66 0 1 0 C1 2.97 1 5.94 1 9 C1.66 6.69 2.32 4.38 3 2 C5 5 5 5 4.67626953 6.90112305 C4.2835083 7.94586792 4.2835083 7.94586792 3.8828125 9.01171875 C3.60566406 9.76904297 3.32851563 10.52636719 3.04296875 11.30664062 C2.74003906 12.09232422 2.43710937 12.87800781 2.125 13.6875 C1.82980469 14.48478516 1.53460938 15.28207031 1.23046875 16.10351562 C0.49908042 18.07354548 -0.24890699 20.0373982 -1 22 C-2.65 22 -4.3 22 -6 22 C-5.40421223 16.73378394 -4.18691204 12.05591981 -2.4375 7.0625 C-2.20353516 6.37865234 -1.96957031 5.69480469 -1.72851562 4.99023438 C-1.15788171 3.32491499 -0.57972902 1.66217507 0 0 Z M-1 10 C0 12 0 12 0 12 Z " fill="#3B9F71" transform="translate(255,185)"/>
<path d="M0 0 C2 0 2 0 3.9375 1.8125 C6.37261296 5.5758564 7.21640243 9.03430005 8.28125 13.3515625 C9.13103203 16.48282456 10.47306751 19.14530012 12 22 C12.6821901 23.99475841 13.34618561 25.9957617 14 28 C14.86929129 30.46035778 15.74442465 32.91865824 16.625 35.375 C16.96917969 36.33599609 16.96917969 36.33599609 17.3203125 37.31640625 C17.87962276 38.87781405 18.43972808 40.43893701 19 42 C18.01 42.495 18.01 42.495 17 43 C16.69819824 42.23034912 16.39639648 41.46069824 16.08544922 40.66772461 C8.10613149 20.30873157 8.10613149 20.30873157 0 0 Z " fill="#DFFCEF" transform="translate(207,165)"/>
<path d="M0 0 C3.96509139 -0.09990539 7.92968163 -0.17194834 11.89575195 -0.21972656 C13.89756051 -0.24940781 15.89901919 -0.30027058 17.90039062 -0.3515625 C25.51647752 -0.42829889 31.39395013 0.02404327 38 4 C37.67 4.66 37.34 5.32 37 6 C36.01 5.67 35.02 5.34 34 5 C34 4.34 34 3.68 34 3 C20.14 2.505 20.14 2.505 6 2 C6.99 2.66 7.98 3.32 9 4 C6.03 3.67 3.06 3.34 0 3 C0 2.01 0 1.02 0 0 Z " fill="#439B73" transform="translate(163,155)"/>
<path d="M0 0 C0.99 0.33 1.98 0.66 3 1 C2.49513741 5.34181831 1.76196064 8.5475492 -1 12 C-3.6875 12.8125 -3.6875 12.8125 -6 13 C-5.63118644 6.85310727 -4.09949571 4.30972626 0 0 Z " fill="#2D2D2D" transform="translate(194,333)"/>
<path d="M0 0 C12.87 0 25.74 0 39 0 C39 1.65 39 3.3 39 5 C38.44779785 4.79141357 37.8955957 4.58282715 37.32666016 4.36791992 C29.69017918 1.75674109 22.3959985 1.45705971 14.375 1.3125 C13.08464844 1.27833984 11.79429688 1.24417969 10.46484375 1.20898438 C7.30998283 1.12719168 4.1553759 1.05781768 1 1 C1 1.99 1 2.98 1 4 C3.97 4.33 6.94 4.66 10 5 C10 5.33 10 5.66 10 6 C2.25 6.125 2.25 6.125 0 5 C0 3.35 0 1.7 0 0 Z " fill="#DCFDF1" transform="translate(96,154)"/>
<path d="M0 0 C1.32 0.66 2.64 1.32 4 2 C3.48474397 7.28137429 1.74522883 10.57221156 -1 15 C-1.66 14.67 -2.32 14.34 -3 14 C-3.91822464 10.7206263 -4.49809379 8.20898821 -3.16796875 4.98046875 C-2.18544379 3.2758053 -1.09907131 1.63195436 0 0 Z " fill="#3D3D3D" transform="translate(267,295)"/>
<path d="M0 0 C1.75 0.125 1.75 0.125 4 1 C6.85757802 4.32096905 8.07852567 5.9399034 7.75 10.375 C7.5025 11.24125 7.255 12.1075 7 13 C3.78920572 11.96795898 2.40059709 10.41251338 0.6875 7.625 C-1 4 -1 4 -0.75 1.5625 C-0.5025 1.046875 -0.255 0.53125 0 0 Z " fill="#343434" transform="translate(252,280)"/>
<path d="M0 0 C0.33 1.32 0.66 2.64 1 4 C-3.58921384 7.15654048 -7.29370646 9.57202798 -13 10 C-13.33 11.65 -13.66 13.3 -14 15 C-14.66 15 -15.32 15 -16 15 C-15.67 16.98 -15.34 18.96 -15 21 C-16.98 21.99 -16.98 21.99 -19 23 C-18.52229477 21.06213915 -18.04278429 19.12472326 -17.5625 17.1875 C-17.29566406 16.10855469 -17.02882813 15.02960938 -16.75390625 13.91796875 C-16.23922588 11.9259157 -15.65062825 9.95188476 -15 8 C-12.85546875 6.8671875 -12.85546875 6.8671875 -10.1875 5.875 C-9.31480469 5.54242188 -8.44210937 5.20984375 -7.54296875 4.8671875 C-5 4 -5 4 -2.73828125 3.5703125 C-2.16464844 3.38210937 -1.59101563 3.19390625 -1 3 C-0.67 2.01 -0.34 1.02 0 0 Z " fill="#D9F7EB" transform="translate(283,155)"/>
<path d="M0 0 C6.93 0.33 13.86 0.66 21 1 C21 1.33 21 1.66 21 2 C18.03 2 15.06 2 12 2 C12.33 3.98 12.66 5.96 13 8 C12.01 7.67 11.02 7.34 10 7 C9.67 6.34 9.34 5.68 9 5 C8.46375 5.226875 7.9275 5.45375 7.375 5.6875 C3.93918099 6.13958145 1.94233306 4.67178015 -1 3 C-0.67 2.01 -0.34 1.02 0 0 Z " fill="#269F68" transform="translate(254,156)"/>
<path d="M0 0 C0 0.66 0 1.32 0 2 C0.90492188 1.96519531 0.90492188 1.96519531 1.828125 1.9296875 C3.02695313 1.90261719 3.02695313 1.90261719 4.25 1.875 C5.03890625 1.85179687 5.8278125 1.82859375 6.640625 1.8046875 C9 2 9 2 13 4 C9.04 4 5.08 4 1 4 C0.34 5.65 -0.32 7.3 -1 9 C-4.12508018 13.74150096 -4.12508018 13.74150096 -7.75 14.8125 C-8.4925 14.874375 -9.235 14.93625 -10 15 C-10 14.01 -10 13.02 -10 12 C-9.34 12.33 -8.68 12.66 -8 13 C-5.35247996 10.42215154 -3.05567935 8.08351902 -1 5 C-2.32 4.67 -3.64 4.34 -5 4 C-5 3.34 -5 2.68 -5 2 C-2 0 -2 0 0 0 Z " fill="#252525" transform="translate(227,305)"/>
<path d="M0 0 C3.3 0 6.6 0 10 0 C11 4 11 4 10 6 C8.54176788 6.0270043 7.08339325 6.04639787 5.625 6.0625 C4.81289062 6.07410156 4.00078125 6.08570313 3.1640625 6.09765625 C1 6 1 6 -1 5 C-0.67 3.35 -0.34 1.7 0 0 Z " fill="#818181" transform="translate(196,309)"/>
<path d="M0 0 C0.66 0 1.32 0 2 0 C2.01981934 0.62567871 2.03963867 1.25135742 2.06005859 1.89599609 C2.15514226 4.72276519 2.26488746 7.54877815 2.375 10.375 C2.4059375 11.35984375 2.436875 12.3446875 2.46875 13.359375 C2.50742188 14.30039063 2.54609375 15.24140625 2.5859375 16.2109375 C2.6173584 17.08024902 2.6487793 17.94956055 2.68115234 18.84521484 C2.81229433 21.20961794 2.81229433 21.20961794 5 23 C4.625 25.125 4.625 25.125 4 27 C4 26.34 4 25.68 4 25 C2.68 25 1.36 25 0 25 C0 16.75 0 8.5 0 0 Z " fill="#C5EED9" transform="translate(233,229)"/>
<path d="M0 0 C2.21964141 2.21964141 2.84038634 3.80371901 3.9453125 6.71875 C4.29980469 7.65074219 4.65429688 8.58273438 5.01953125 9.54296875 C5.38433594 10.51878906 5.74914062 11.49460938 6.125 12.5 C6.68380859 13.96373047 6.68380859 13.96373047 7.25390625 15.45703125 C10 22.72965316 10 22.72965316 10 25 C9.34 25 8.68 25 8 25 C7.39520315 23.64611467 6.79120246 22.29187368 6.1875 20.9375 C5.63835937 19.70580078 5.63835937 19.70580078 5.078125 18.44921875 C4.17253445 16.39195325 3.29902006 14.32589675 2.4375 12.25 C1.11263243 8.99695874 1.11263243 8.99695874 -0.8125 6.3125 C-1.204375 5.549375 -1.59625 4.78625 -2 4 C-1.1875 1.6875 -1.1875 1.6875 0 0 Z " fill="#42A273" transform="translate(157,206)"/>
<path d="M0 0 C10.23 0 20.46 0 31 0 C31 0.33 31 0.66 31 1 C28.69 1.33 26.38 1.66 24 2 C30.93 2.495 30.93 2.495 38 3 C38 3.33 38 3.66 38 4 C31.4 4 24.8 4 18 4 C18.66 3.67 19.32 3.34 20 3 C20 2.34 20 1.68 20 1 C13.4 1.33 6.8 1.66 0 2 C0 1.34 0 0.68 0 0 Z " fill="#35966A" transform="translate(241,214)"/>
<path d="M0 0 C3 1 3 1 4.203125 3.21484375 C4.54859375 4.11332031 4.8940625 5.01179688 5.25 5.9375 C5.60578125 6.83339844 5.9615625 7.72929687 6.328125 8.65234375 C7 11 7 11 6 13 C4.68103535 12.07161713 3.37001311 11.13194268 2.0625 10.1875 C1.33160156 9.66542969 0.60070312 9.14335937 -0.15234375 8.60546875 C-2 7 -2 7 -3 4 C-1.5625 1.8125 -1.5625 1.8125 0 0 Z " fill="#EEEEEE" transform="translate(258,305)"/>
<path d="M0 0 C9.24 0 18.48 0 28 0 C28 0.33 28 0.66 28 1 C18.595 1.495 18.595 1.495 9 2 C9.99 2.99 10.98 3.98 12 5 C11.67 5.99 11.34 6.98 11 8 C10.34 7.01 9.68 6.02 9 5 C6.81494871 4.20562077 6.81494871 4.20562077 4.375 3.8125 C3.14910156 3.57466797 3.14910156 3.57466797 1.8984375 3.33203125 C1.27195312 3.22246094 0.64546875 3.11289063 0 3 C0 2.01 0 1.02 0 0 Z " fill="#4A9974" transform="translate(97,155)"/>
<path d="M0 0 C0 3 0 3 -1.5 6.3125 C-3.22523621 10.55370568 -4.00822445 13.46859774 -2.2734375 17.82421875 C-0.20505479 21.83486328 1.8216442 24.02688754 6 26 C5.67 26.99 5.34 27.98 5 29 C-4.58826269 21.35565906 -4.58826269 21.35565906 -5.3125 15.453125 C-5.57910856 9.28780216 -5.06736611 5.6836337 -1 1 C-0.67 0.67 -0.34 0.34 0 0 Z " fill="#292929" transform="translate(137,288)"/>
<path d="M0 0 C0.33 0 0.66 0 1 0 C1.125 6.625 1.125 6.625 0 10 C-0.66 10 -1.32 10 -2 10 C-1.94199219 10.60328125 -1.88398438 11.2065625 -1.82421875 11.828125 C-1.68446818 14.30370659 -1.64067362 16.5438985 -2 19 C-4.5 21.5625 -4.5 21.5625 -7 23 C-4.97810834 15.21878058 -2.61369593 7.60227292 0 0 Z " fill="#D8F7EB" transform="translate(263,178)"/>
<path d="M0 0 C10.89 0 21.78 0 33 0 C32.67 1.32 32.34 2.64 32 4 C31.34 3.67 30.68 3.34 30 3 C30.33 2.34 30.66 1.68 31 1 C26.72862746 1.10967098 22.45815234 1.2403499 18.1875 1.375 C16.97255859 1.4059375 15.75761719 1.436875 14.50585938 1.46875 C12.76079102 1.52675781 12.76079102 1.52675781 10.98046875 1.5859375 C9.90692139 1.6173584 8.83337402 1.6487793 7.72729492 1.68115234 C4.7839235 1.81592307 4.7839235 1.81592307 2 4 C1.34 3.67 0.68 3.34 0 3 C0 2.01 0 1.02 0 0 Z " fill="#469370" transform="translate(250,155)"/>
<path d="M0 0 C0.66 0 1.32 0 2 0 C2.433125 1.134375 2.86625 2.26875 3.3125 3.4375 C4.1478125 5.2009375 4.1478125 5.2009375 5 7 C5.99 7.33 6.98 7.66 8 8 C8 8.99 8 9.98 8 11 C7.34 11 6.68 11 6 11 C6.33 12.32 6.66 13.64 7 15 C7.66 15 8.32 15 9 15 C9.33 14.34 9.66 13.68 10 13 C9.67 15.97 9.34 18.94 9 22 C7.34233337 19.51350006 6.33290658 17.54723338 5.2734375 14.8046875 C4.9640625 14.00675781 4.6546875 13.20882813 4.3359375 12.38671875 C4.01882812 11.55785156 3.70171875 10.72898438 3.375 9.875 C2.88773438 8.62009766 2.88773438 8.62009766 2.390625 7.33984375 C0 1.14229911 0 1.14229911 0 0 Z " fill="#389E6E" transform="translate(141,245)"/>
<path d="M0 0 C1.46600811 0.04253178 2.93147757 0.10742809 4.39575195 0.19042969 C5.16836868 0.21828552 5.94098541 0.24614136 6.73701477 0.27484131 C9.20389227 0.36818928 11.66844442 0.48987744 14.1340332 0.61230469 C15.80648394 0.68058119 17.47901121 0.74701003 19.15161133 0.81152344 C23.25111446 0.97369303 27.34875865 1.16128775 31.4465332 1.36230469 C31.4465332 1.69230469 31.4465332 2.02230469 31.4465332 2.36230469 C20.5565332 2.36230469 9.6665332 2.36230469 -1.5534668 2.36230469 C-1.5534668 3.35230469 -1.5534668 4.34230469 -1.5534668 5.36230469 C-3.2034668 5.03230469 -4.8534668 4.70230469 -6.5534668 4.36230469 C-4.78814527 0.86173525 -3.9833448 0.40613423 0 0 Z " fill="#DAFBF0" transform="translate(251.553466796875,152.6376953125)"/>
<path d="M0 0 C0.99 0 1.98 0 3 0 C2.3146345 4.99450259 0.97984349 9.5967594 -0.5625 14.375 C-0.91344727 15.47908203 -0.91344727 15.47908203 -1.27148438 16.60546875 C-1.8440028 18.40481238 -2.42149314 20.20257277 -3 22 C-3.33 22 -3.66 22 -4 22 C-4.31610149 15.99407176 -3.5245783 12.55407227 -1 7 C-0.5945897 4.67810464 -0.23927006 2.34484656 0 0 Z " fill="#449C72" transform="translate(234,254)"/>
<path d="M0 0 C0.66 0.33 1.32 0.66 2 1 C2 2.65 2 4.3 2 6 C2.66 6 3.32 6 4 6 C3.67 8.97 3.34 11.94 3 15 C0.97803833 12.97803833 0.32448642 11.74135514 -0.6875 9.125 C-0.95949219 8.44695312 -1.23148438 7.76890625 -1.51171875 7.0703125 C-2.07877813 4.66598075 -1.82401421 3.3072398 -1 1 C-0.67 0.67 -0.34 0.34 0 0 Z " fill="#2EA26E" transform="translate(196,208)"/>
<path d="M0 0 C0.66 0 1.32 0 2 0 C2.79275148 1.4160599 3.58415312 2.83287553 4.375 4.25 C4.81585938 5.03890625 5.25671875 5.8278125 5.7109375 6.640625 C6.13632813 7.41921875 6.56171875 8.1978125 7 9 C7.391875 9.6909375 7.78375 10.381875 8.1875 11.09375 C9.38583802 13.90523535 8.66120871 16.09068169 8 19 C5.91855733 16.91855733 5.42631862 15.80710207 4.4921875 13.0859375 C4.22792969 12.32539063 3.96367187 11.56484375 3.69140625 10.78125 C3.42199219 9.9871875 3.15257812 9.193125 2.875 8.375 C2.59785156 7.57320312 2.32070312 6.77140625 2.03515625 5.9453125 C1.35158852 3.96532321 0.67511573 1.98288708 0 0 Z " fill="#3B9E71" transform="translate(178,171)"/>
<path d="M0 0 C1.18622236 2.13520024 1.98143795 3.89433908 2.40625 6.3125 C3.06410086 9.29014071 4.15788208 11.61131169 5.5625 14.3125 C6.01753906 15.19550781 6.47257812 16.07851563 6.94140625 16.98828125 C7.29074219 17.65214844 7.64007813 18.31601562 8 19 C5.06553114 17.58208437 2.56667591 16.01667393 0 14 C0.33 13.01 0.66 12.02 1 11 C0.67 9.865625 0.34 8.73125 0 7.5625 C-0.91977596 4.28579813 -1.22222618 3.05556544 0 0 Z " fill="#202020" transform="translate(263,305)"/>
<path d="M0 0 C0.99 0 1.98 0 3 0 C2.938125 0.94875 2.87625 1.8975 2.8125 2.875 C2.77802082 7.10731972 4.03889964 10.70978343 5.44140625 14.66796875 C6.04860519 17.20291815 5.84479773 18.56631118 5 21 C2.12782571 13.97319219 0.32978484 7.60154046 0 0 Z " fill="#46A176" transform="translate(329,218)"/>
<path d="M0 0 C0.66 0.33 1.32 0.66 2 1 C0.68 5.62 -0.64 10.24 -2 15 C-2.33 15 -2.66 15 -3 15 C-3.98622152 10.93183621 -4.38697752 7.17935717 -4 3 C-2 1.0625 -2 1.0625 0 0 Z " fill="#F1F1F1" transform="translate(265,292)"/>
<path d="M0 0 C0.66 0.99 1.32 1.98 2 3 C1.125 6.6875 1.125 6.6875 0 10 C-1.32 10.33 -2.64 10.66 -4 11 C-3.56179109 6.44262737 -3.14958831 3.42346555 0 0 Z " fill="#AEAEAE" transform="translate(209,315)"/>
<path d="M0 0 C2.50298434 2.93828597 3.46930939 5.17902761 4 9 C5.65 9 7.3 9 9 9 C9 9.99 9 10.98 9 12 C7.02 12 5.04 12 3 12 C1.68 8.37 0.36 4.74 -1 1 C-0.67 0.67 -0.34 0.34 0 0 Z " fill="#459C74" transform="translate(153,272)"/>
<path d="M0 0 C0.33 0 0.66 0 1 0 C1 2.31 1 4.62 1 7 C1.66 7 2.32 7 3 7 C2.5020163 10.73487777 2.12508244 12.81237635 0 16 C-0.33 14.35 -0.66 12.7 -1 11 C-1.66 11 -2.32 11 -3 11 C-2.01 7.37 -1.02 3.74 0 0 Z " fill="#3EA175" transform="translate(262,165)"/>
<path d="M0 0 C0.85851562 0.24363281 0.85851562 0.24363281 1.734375 0.4921875 C8.03877738 1.90524321 14.68355625 0.91875545 21 0 C16.24643322 3.77007021 12.03502529 4.68192376 6 4 C2.5 2.5 2.5 2.5 0 1 C0 0.67 0 0.34 0 0 Z " fill="#343434" transform="translate(152,305)"/>
<path d="M0 0 C0.33 0 0.66 0 1 0 C1 2.64 1 5.28 1 8 C1.66 8.33 2.32 8.66 3 9 C2.67 10.32 2.34 11.64 2 13 C0.35 13 -1.3 13 -3 13 C-2.45144652 8.428721 -1.58255197 4.32564205 0 0 Z " fill="#45A077" transform="translate(252,194)"/>
<path d="M0 0 C6.10001291 -0.54464401 9.38266412 0.31620606 14.53125 3.61328125 C15.0159375 4.07089844 15.500625 4.52851563 16 5 C16 5.99 16 6.98 16 8 C15.175 7.360625 14.35 6.72125 13.5 6.0625 C10.87849938 4.27738291 8.90188882 3.70207461 5.75 3.4375 C4.5125 3.293125 3.275 3.14875 2 3 C1.34 2.01 0.68 1.02 0 0 Z " fill="#3A3A3A" transform="translate(230,317)"/>
<path d="M0 0 C0.33 0 0.66 0 1 0 C1 1.65 1 3.3 1 5 C1.99 4.67 2.98 4.34 4 4 C3.67 5.98 3.34 7.96 3 10 C2.34 9.67 1.68 9.34 1 9 C0.67 9.66 0.34 10.32 0 11 C-0.99 10.67 -1.98 10.34 -3 10 C-2.01 6.7 -1.02 3.4 0 0 Z " fill="#3DA272" transform="translate(183,203)"/>
<path d="M0 0 C1.32 0.33 2.64 0.66 4 1 C4.12375 1.61875 4.2475 2.2375 4.375 2.875 C4.87197356 5.19120832 4.87197356 5.19120832 7 7 C7.125 10.125 7.125 10.125 7 13 C6.01 13.495 6.01 13.495 5 14 C3.35 9.38 1.7 4.76 0 0 Z " fill="#3D9E71" transform="translate(209,250)"/>
<path d="M0 0 C0.66 0 1.32 0 2 0 C2 0.99 2 1.98 2 3 C2.66 3 3.32 3 4 3 C4.66 5.97 5.32 8.94 6 12 C3 11 3 11 1 9 C0.33203125 7.08984375 0.33203125 7.08984375 -0.1875 4.9375 C-0.36667969 4.22464844 -0.54585937 3.51179687 -0.73046875 2.77734375 C-0.81941406 2.19082031 -0.90835938 1.60429687 -1 1 C-0.67 0.67 -0.34 0.34 0 0 Z " fill="#17A564" transform="translate(184,176)"/>
<path d="M0 0 C0.66 0.33 1.32 0.66 2 1 C0.35 2.98 -1.3 4.96 -3 7 C-2.21625 6.525625 -1.4325 6.05125 -0.625 5.5625 C0.88948678 4.66101977 2.4235897 3.78820515 4 3 C2.84826645 5.46800047 1.95216435 7.04783565 0 9 C-2.625 9.125 -2.625 9.125 -5 9 C-4.50769231 3.46153846 -4.50769231 3.46153846 -1.9375 1.125 C-1.298125 0.75375 -0.65875 0.3825 0 0 Z " fill="#303030" transform="translate(159,334)"/>
<path d="M0 0 C0.33 0 0.66 0 1 0 C0.98839844 0.59167969 0.97679687 1.18335938 0.96484375 1.79296875 C0.91677614 6.00231785 0.93993117 9.8922333 2 14 C1.34 13.67 0.68 13.34 0 13 C0 12.34 0 11.68 0 11 C-0.66 11 -1.32 11 -2 11 C-2 11.99 -2 12.98 -2 14 C-2.66 14 -3.32 14 -4 14 C-3.52188823 12.22888156 -3.0424722 10.45811517 -2.5625 8.6875 C-2.29566406 7.70136719 -2.02882812 6.71523437 -1.75390625 5.69921875 C-1.21920575 3.78482474 -0.62855462 1.88566385 0 0 Z " fill="#48A578" transform="translate(179,214)"/>
<path d="M0 0 C0.99 1.32 1.98 2.64 3 4 C2 6 2 6 0.5625 7.6875 C-1.43013298 10.63659682 -2.14205179 13.56820716 -3 17 C-3.66 17 -4.32 17 -5 17 C-1.92482916 5.47835991 -1.92482916 5.47835991 0 0 Z " fill="#CCF5E5" transform="translate(189,201)"/>
<path d="M0 0 C6.25 3.7109375 6.25 3.7109375 8 5 C8 5.66 8 6.32 8 7 C6.35 6.67 4.7 6.34 3 6 C2.67 8.64 2.34 11.28 2 14 C1.67 14 1.34 14 1 14 C0.67 9.38 0.34 4.76 0 0 Z " fill="#484848" transform="translate(255,311)"/>
<path d="M0 0 C5.75 0.75 5.75 0.75 8 3 C7.625 5.625 7.625 5.625 7 8 C6.34 7.34 5.68 6.68 5 6 C4.01 6.495 4.01 6.495 3 7 C2.34 5.68 1.68 4.36 1 3 C1.33 2.67 1.66 2.34 2 2 C1.34 1.34 0.68 0.68 0 0 Z " fill="#181818" transform="translate(204,310)"/>
<path d="M0 0 C0.33 0 0.66 0 1 0 C1.33 2.31 1.66 4.62 2 7 C-1.21451269 8.60725635 -4.43612536 8.05748185 -8 8 C-8 6.35 -8 4.7 -8 3 C-7.67 3.99 -7.34 4.98 -7 6 C-5.02 6 -3.04 6 -1 6 C-0.67 4.02 -0.34 2.04 0 0 Z " fill="#D1EFE3" transform="translate(229,278)"/>
<path d="M0 0 C0 3.9519815 -1.37176172 5.14648416 -4 8 C-4.99 8.33 -5.98 8.66 -7 9 C-6.875 6.75 -6.875 6.75 -6 4 C-2.9375 1.6875 -2.9375 1.6875 0 0 Z " fill="#DDDDDD" transform="translate(225,310)"/>
<path d="M0 0 C2.86477034 1.05041579 3.83913226 1.70124563 5.3125 4.4375 C6 7 6 7 5 10 C0 4.5 0 4.5 0 0 Z " fill="#E0E0E0" transform="translate(253,282)"/>
<path d="M0 0 C-2.06756277 2.7972908 -3.14440371 3.02692273 -6.6875 3.6875 C-7.780625 3.790625 -8.87375 3.89375 -10 4 C-10 3.01 -10 2.02 -10 1 C-3.71428571 -1.42857143 -3.71428571 -1.42857143 0 0 Z " fill="#439D73" transform="translate(278,337)"/>
<path d="M0 0 C1.15518918 0.90484792 2.29885406 1.8244206 3.4375 2.75 C4.07558594 3.26046875 4.71367187 3.7709375 5.37109375 4.296875 C7.18810554 6.19667629 7.60423197 7.43586908 8 10 C3.79236776 8.4972742 2.1972242 5.76667005 0 2 C0 1.34 0 0.68 0 0 Z " fill="#E6E6E6" transform="translate(199,334)"/>
<path d="M0 0 C0.66 0 1.32 0 2 0 C0.52307692 6.52307692 0.52307692 6.52307692 -2.125 8.9375 C-2.74375 9.288125 -3.3625 9.63875 -4 10 C-4.4025937 6.47730515 -4.13372795 5.20059192 -2.125 2.1875 C-1.42375 1.465625 -0.7225 0.74375 0 0 Z " fill="#E2E2E2" transform="translate(194,335)"/>
<path d="M0 0 C4.51478398 0.53115106 7.34666857 2.36620292 11 5 C9.4375 5.75 9.4375 5.75 7 6 C4.49713591 4.86915563 2.32992278 3.47860484 0 2 C0 1.34 0 0.68 0 0 Z " fill="#DADADA" transform="translate(215,301)"/>
<path d="M0 0 C0.66 0 1.32 0 2 0 C1.58525633 5.28798182 0.64775386 8.11690718 -3 12 C-2.14285714 3.42857143 -2.14285714 3.42857143 0 0 Z " fill="#E3E3E3" transform="translate(267,297)"/>
<path d="M0 0 C3.89985574 4.15984612 4.89169747 7.55084591 6 13 C4 12 4 12 2 9 C1.01 9.495 1.01 9.495 0 10 C0 6.7 0 3.4 0 0 Z " fill="#429E74" transform="translate(140,165)"/>
<path d="M0 0 C4.23169259 0.37615045 6.8083482 1.17661571 10 4 C2.49230769 4.36923077 2.49230769 4.36923077 0 2.5 C-0.33 2.005 -0.66 1.51 -1 1 C-0.67 0.67 -0.34 0.34 0 0 Z " fill="#E3E3E3" transform="translate(173,323)"/>
<path d="M0 0 C0.66 0 1.32 0 2 0 C1.52797514 4.24822374 -0.96655518 6.19989709 -4 9 C-4.66 8.67 -5.32 8.34 -6 8 C-5.04956626 6.66102417 -4.08940853 5.32894573 -3.125 4 C-2.59132813 3.2575 -2.05765625 2.515 -1.5078125 1.75 C-1.01023437 1.1725 -0.51265625 0.595 0 0 Z " fill="#E2E2E2" transform="translate(268,283)"/>
<path d="M0 0 C0.66 0 1.32 0 2 0 C2.99 4.95 3.98 9.9 5 15 C4.01 14.67 3.02 14.34 2 14 C1.34 9.38 0.68 4.76 0 0 Z " fill="#D8F9EC" transform="translate(327,219)"/>
<path d="M0 0 C1.125 3.75 1.125 3.75 0 6 C-0.2165625 6.99 -0.2165625 6.99 -0.4375 8 C-1 10 -1 10 -3 12 C-4 11 -4 11 -4.0625 7.9375 C-4.041875 6.968125 -4.02125 5.99875 -4 5 C-3.01 4.67 -2.02 4.34 -1 4 C-0.26676204 1.98491642 -0.26676204 1.98491642 0 0 Z " fill="#259E65" transform="translate(177,229)"/>
<path d="M0 0 C0.66 0 1.32 0 2 0 C2.33 1.32 2.66 2.64 3 4 C3.66 4 4.32 4 5 4 C5.33 7.3 5.66 10.6 6 14 C3.74402173 11.74402173 3.03425808 9.95396133 1.875 7 C1.52179688 6.113125 1.16859375 5.22625 0.8046875 4.3125 C0 2 0 2 0 0 Z " fill="#E2F9EE" transform="translate(225,209)"/>
<path d="M0 0 C0.66 0 1.32 0 2 0 C2.6708712 1.6232687 3.33657029 3.24867578 4 4.875 C4.556875 6.23238281 4.556875 6.23238281 5.125 7.6171875 C6 10 6 10 6 12 C5.34 12 4.68 12 4 12 C2 10 2 10 1.875 6.375 C1.91625 5.26125 1.9575 4.1475 2 3 C1.01 3 0.02 3 -1 3 C-0.67 2.01 -0.34 1.02 0 0 Z " fill="#3CA474" transform="translate(211,178)"/>
<path d="M0 0 C0 0.66 0 1.32 0 2 C-2.64 2.66 -5.28 3.32 -8 4 C-8 3.34 -8 2.68 -8 2 C-8.66 1.67 -9.32 1.34 -10 1 C-3.375 -1.125 -3.375 -1.125 0 0 Z " fill="#2B2B2B" transform="translate(172,315)"/>
<path d="M0 0 C0.99 0.33 1.98 0.66 3 1 C2.67 2.65 2.34 4.3 2 6 C2.66 6 3.32 6 4 6 C4.33 7.98 4.66 9.96 5 12 C4.01 12.495 4.01 12.495 3 13 C1.68 9.04 0.36 5.08 -1 1 C-0.67 0.67 -0.34 0.34 0 0 Z " fill="#3BA374" transform="translate(216,264)"/>
<path d="M0 0 C1 3 1 3 0.125 5.6875 C-2 8 -2 8 -4.20703125 8.3203125 C-6.49055822 8.31312029 -8.72708261 8.21442617 -11 8 C-11 7.67 -11 7.34 -11 7 C-9.9275 6.773125 -8.855 6.54625 -7.75 6.3125 C-3.62781299 4.86973455 -2.35585477 3.58089925 0 0 Z " fill="#E0FBF2" transform="translate(251,240)"/>
<path d="M0 0 C2.79958342 4.19937513 3.11598878 6.09705438 3.0625 11.125 C3.05347656 12.22070312 3.04445312 13.31640625 3.03515625 14.4453125 C3.02355469 15.28835937 3.01195312 16.13140625 3 17 C2.67 17 2.34 17 2 17 C1.77213542 14.94921875 1.54427083 12.8984375 1.31640625 10.84765625 C1.18113386 8.98859771 1.18113386 8.98859771 0 8 C-0.14115161 5.32941149 -0.04247107 2.67567762 0 0 Z " fill="#439F72" transform="translate(230,223)"/>
<path d="M0 0 C-1.16142685 4.35535069 -2.07699505 6.64619703 -6 9 C-5.38983051 3.50847458 -5.38983051 3.50847458 -3.5625 1.125 C-2 0 -2 0 0 0 Z " fill="#EDEDED" transform="translate(184,331)"/>
<path d="M0 0 C0.66 0.33 1.32 0.66 2 1 C-1.61328125 5.6875 -1.61328125 5.6875 -3 7 C-3.99 7 -4.98 7 -6 7 C-4.60667426 3.63279613 -3.0210714 2.0140476 0 0 Z " fill="#ECECEC" transform="translate(162,334)"/>
<path d="M0 0 C3.73487777 0.4979837 5.81237635 0.87491756 9 3 C9 3.66 9 4.32 9 5 C5.26512223 4.5020163 3.18762365 4.12508244 0 2 C0 1.34 0 0.68 0 0 Z " fill="#E9E9E9" transform="translate(154,325)"/>
<path d="M0 0 C-0.33 0.66 -0.66 1.32 -1 2 C-6.61 1.67 -12.22 1.34 -18 1 C-18 0.67 -18 0.34 -18 0 C-5.33029613 -1.33257403 -5.33029613 -1.33257403 0 0 Z " fill="#636363" transform="translate(239,295)"/>
<path d="M0 0 C2.47186455 2.96346786 3.66248361 5.54041689 4.6875 9.25 C4.93886719 10.14203125 5.19023437 11.0340625 5.44921875 11.953125 C5.72185547 12.96632813 5.72185547 12.96632813 6 14 C5.01 13.67 4.02 13.34 3 13 C2.05078125 10.8203125 2.05078125 10.8203125 1.3125 8.125 C1.06113281 7.24070312 0.80976563 6.35640625 0.55078125 5.4453125 C0 3 0 3 0 0 Z " fill="#D1F7E8" transform="translate(150,270)"/>
<path d="M0 0 C1.13643966 3.40931897 0.86747764 4.00335456 -0.4375 7.1875 C-0.86869141 8.26064453 -0.86869141 8.26064453 -1.30859375 9.35546875 C-1.53675781 9.89816406 -1.76492188 10.44085938 -2 11 C-3.24386556 7.26840331 -2.77811718 4.81984796 -2 1 C-1.34 0.67 -0.68 0.34 0 0 Z " fill="#259D65" transform="translate(258,184)"/>
<path d="M0 0 C0.33 0.66 0.66 1.32 1 2 C-3.43076923 4.09230769 -3.43076923 4.09230769 -6.3125 3.625 C-6.869375 3.41875 -7.42625 3.2125 -8 3 C-7 1 -7 1 -4.5625 -0.1875 C-2 -1 -2 -1 0 0 Z " fill="#1F1F1F" transform="translate(179,312)"/>
<path d="M0 0 C1.1446875 1.175625 1.1446875 1.175625 2.3125 2.375 C4.90891805 5.07257717 4.90891805 5.07257717 8 7 C8.33 6.01 8.66 5.02 9 4 C9 5.32 9 6.64 9 8 C3.51219512 7.51219512 3.51219512 7.51219512 1.125 5.125 C0 3 0 3 0 0 Z " fill="#303030" transform="translate(199,337)"/>
<path d="M0 0 C0.99 0.33 1.98 0.66 3 1 C1.02579865 3.52259061 0.03254358 3.9929808 -3.1875 4.6875 C-4.5796875 4.8421875 -4.5796875 4.8421875 -6 5 C-2.25 1.125 -2.25 1.125 0 0 Z " fill="#0D0D0D" transform="translate(184,308)"/>
<path d="M0 0 C-1 3 -1 3 -3.875 4.75 C-7 6 -7 6 -10 5 C-7.31217681 1.88778367 -4.19734673 0 0 0 Z " fill="#0E0E0E" transform="translate(209,297)"/>
<path d="M0 0 C0.5625 1.9375 0.5625 1.9375 1 4 C0 5 0 5 -3.0625 5.0625 C-4.5165625 5.0315625 -4.5165625 5.0315625 -6 5 C-6 4.01 -6 3.02 -6 2 C-4.02 2 -2.04 2 0 2 C0 1.34 0 0.68 0 0 Z " fill="#379B6B" transform="translate(247,241)"/>
<path d="M0 0 C0 1.32 0 2.64 0 4 C-3.3 3.01 -6.6 2.02 -10 1 C-10 0.67 -10 0.34 -10 0 C-2.25 -1.125 -2.25 -1.125 0 0 Z " fill="#D6F8E8" transform="translate(135,155)"/>
<path d="M0 0 C1.32 0.66 2.64 1.32 4 2 C1.82575883 4.50037734 0.26954202 5.43628586 -3 6 C-3.33 5.01 -3.66 4.02 -4 3 C-2.68 2.67 -1.36 2.34 0 2 C0 1.34 0 0.68 0 0 Z " fill="#0E0E0E" transform="translate(184,326)"/>
<path d="M0 0 C0.99 0.33 1.98 0.66 3 1 C2.67 2.98 2.34 4.96 2 7 C1.67 6.01 1.34 5.02 1 4 C1.33 3.34 1.66 2.68 2 2 C0.35 3.32 -1.3 4.64 -3 6 C-3 3 -3 3 -1.5 1.3125 C-0.7575 0.6628125 -0.7575 0.6628125 0 0 Z " fill="#393939" transform="translate(194,333)"/>
<path d="M0 0 C0.99 0 1.98 0 3 0 C2.25 5.75 2.25 5.75 0 8 C-1.125 2.25 -1.125 2.25 0 0 Z " fill="#389A6E" transform="translate(234,254)"/>
<path d="M0 0 C2.50298434 2.93828597 3.46930939 5.17902761 4 9 C2.68 8.67 1.36 8.34 0 8 C0 5.36 0 2.72 0 0 Z " fill="#CFF3E4" transform="translate(203,236)"/>
<path d="M0 0 C1.00289062 0.10183594 2.00578125 0.20367187 3.0390625 0.30859375 C3.80992187 0.39238281 4.58078125 0.47617187 5.375 0.5625 C5.375 0.8925 5.375 1.2225 5.375 1.5625 C4.43527344 1.65337891 4.43527344 1.65337891 3.4765625 1.74609375 C2.65929687 1.82988281 1.84203125 1.91367187 1 2 C0.18789062 2.08121094 -0.62421875 2.16242188 -1.4609375 2.24609375 C-3.66772805 2.45340114 -3.66772805 2.45340114 -5.625 3.5625 C-6.285 3.2325 -6.945 2.9025 -7.625 2.5625 C-7.625 1.9025 -7.625 1.2425 -7.625 0.5625 C-4.89657939 -0.80171031 -3.01546682 -0.31557211 0 0 Z " fill="#0B0B0B" transform="translate(170.625,330.4375)"/>
<path d="M0 0 C1.65 1.65 3.3 3.3 5 5 C4.67 5.99 4.34 6.98 4 8 C2.35 6.35 0.7 4.7 -1 3 C-0.67 2.01 -0.34 1.02 0 0 Z " fill="#3D9E71" transform="translate(204,163)"/>
<path d="M0 0 C1.39195915 4.17587745 -0.17676781 6.13474776 -2 10 C-2.66 8.68 -3.32 7.36 -4 6 C-3.34 5.67 -2.68 5.34 -2 5 C-1.27840576 3.35636866 -0.60648579 1.68949614 0 0 Z " fill="#D8FBEE" transform="translate(173,229)"/>
<path d="M0 0 C2.3773161 2.3773161 2.67028521 3.70285207 3 7 C2.34 7.66 1.68 8.32 1 9 C-1.09230769 4.56923077 -1.09230769 4.56923077 -0.625 1.6875 C-0.41875 1.130625 -0.2125 0.57375 0 0 Z " fill="#3FA575" transform="translate(220,198)"/>
<path d="M0 0 C2.31 0.33 4.62 0.66 7 1 C3.5647952 3.29013653 2.014669 3.17842973 -2 3 C-1.34 2.01 -0.68 1.02 0 0 Z " fill="#CECECE" transform="translate(172,328)"/>
<path d="M0 0 C0.33 0.66 0.66 1.32 1 2 C0.67 2.99 0.34 3.98 0 5 C-1.98 5 -3.96 5 -6 5 C-6 4.34 -6 3.68 -6 3 C-5.195625 2.690625 -4.39125 2.38125 -3.5625 2.0625 C-1.10919595 1.23664655 -1.10919595 1.23664655 0 0 Z " fill="#4D9E78" transform="translate(228,279)"/>
<path d="M0 0 C2.18975773 3.28463659 2.99806563 6.20696275 4 10 C3.34 10 2.68 10 2 10 C-0.09350689 6.5980513 -0.17942163 3.94727588 0 0 Z " fill="#DDFAED" transform="translate(194,213)"/>
<path d="M0 0 C0.99 0.33 1.98 0.66 3 1 C4.1875 4.5625 4.1875 4.5625 5 8 C4.01 8.495 4.01 8.495 3 9 C2.01 6.03 1.02 3.06 0 0 Z " fill="#47A077" transform="translate(174,161)"/>
<path d="M0 0 C2.31 0 4.62 0 7 0 C5.68 1.32 4.36 2.64 3 4 C2.01 3.67 1.02 3.34 0 3 C0 2.01 0 1.02 0 0 Z " fill="#3A9870" transform="translate(250,155)"/>
</svg>
